<?xml version="1.0" encoding="UTF-8" standalone="no"?>
<svg width="44px" height="50px" viewBox="0 0 44 50" version="1.1" xmlns="http://www.w3.org/2000/svg" xmlns:xlink="http://www.w3.org/1999/xlink">
    <!-- Generator: Sketch 3.7 (28169) - http://www.bohemiancoding.com/sketch -->
    <title>noun_107383_cc</title>
    <desc>Created with Sketch.</desc>
    <defs>
        <linearGradient x1="50%" y1="0%" x2="50%" y2="100%" id="linearGradient-1">
            <stop stop-color="#A5B7C7" offset="0%"></stop>
            <stop stop-color="#8395AC" offset="100%"></stop>
        </linearGradient>
    </defs>
    <g id="New-Landing" stroke="none" stroke-width="1" fill="none" fill-rule="evenodd">
        <g id="Landing-(v1)" transform="translate(-162.000000, -567.000000)" fill="url(#linearGradient-1)">
            <g id="Feature-Broad" transform="translate(0.000000, 538.000000)">
                <g id="noun_107383_cc" transform="translate(162.000000, 29.000000)">
                    <g id="Group">
                        <path d="M42.9557428,12.3409574 L22.2172949,0.37287234 C21.9703769,0.229787234 21.6659867,0.229787234 21.4190687,0.37287234 L0.680620843,12.3409574 C0.433702882,12.4835106 0.281507761,12.7468085 0.281507761,13.0319149 L0.281507761,36.9680851 C0.281507761,37.2531915 0.433702882,37.5164894 0.680620843,37.6590426 L21.4190687,49.6271277 C21.5425277,49.6989362 21.6803548,49.7340426 21.8181818,49.7340426 C21.9560089,49.7340426 22.0938359,49.6989362 22.2172949,49.6271277 L42.9557428,37.6590426 C43.2031929,37.5164894 43.3548559,37.2531915 43.3548559,36.9680851 L43.3548559,13.0319149 C43.3548559,12.7468085 43.2031929,12.4835106 42.9557428,12.3409574 L42.9557428,12.3409574 Z M20.7538803,25.3069149 L1.87796009,36.2005319 L1.87796009,14.4138298 L20.7538803,25.3069149 L20.7538803,25.3069149 Z M21.0199557,25.7675532 L21.0199557,47.5542553 L2.14403548,36.6611702 L21.0199557,25.7675532 L21.0199557,25.7675532 Z M22.616408,25.7675532 L41.4923282,36.6606383 L22.616408,47.5542553 L22.616408,25.7675532 L22.616408,25.7675532 Z M22.8824834,25.3074468 L41.7584035,14.4143617 L41.7584035,36.2010638 L22.8824834,25.3074468 L22.8824834,25.3074468 Z M40.9601774,13.0319149 L22.0842572,23.9255319 L22.0842572,2.13882979 L40.9601774,13.0319149 L40.9601774,13.0319149 Z M21.5521064,2.13882979 L21.5521064,23.9255319 L2.67618625,13.0319149 L21.5521064,2.13882979 L21.5521064,2.13882979 Z" id="Shape"></path>
                    </g>
                </g>
            </g>
        </g>
    </g>
</svg>