<?xml version="1.0" encoding="UTF-8" standalone="no"?>
<svg width="44px" height="50px" viewBox="0 0 44 50" version="1.1" xmlns="http://www.w3.org/2000/svg" xmlns:xlink="http://www.w3.org/1999/xlink">
    <!-- Generator: Sketch 3.7 (28169) - http://www.bohemiancoding.com/sketch -->
    <title>noun_309941_cc</title>
    <desc>Created with Sketch.</desc>
    <defs>
        <linearGradient x1="50%" y1="0%" x2="50%" y2="100%" id="linearGradient-1">
            <stop stop-color="#A5B7C7" offset="0%"></stop>
            <stop stop-color="#8395AC" offset="100%"></stop>
        </linearGradient>
    </defs>
    <g id="New-Landing" stroke="none" stroke-width="1" fill="none" fill-rule="evenodd">
        <g id="Landing-(v1)" transform="translate(-748.000000, -567.000000)">
            <g id="Feature-Broad" transform="translate(0.000000, 538.000000)">
                <g id="noun_309941_cc" transform="translate(748.000000, 29.000000)">
                    <g id="Group">
                        <g id="Shape">
                            <path d="M43.0555556,25.3888889 L36.4444444,0.666666667 C36.3333333,0.388888889 36.1666667,0.222222222 35.8888889,0.111111111 C35.6111111,-4.57064941e-14 35.3333333,0.0555555556 35.1111111,0.222222222 C35.0555556,0.222222222 30.7777778,3.44444444 25.8888889,4.77777778 C23.5555556,5.38888889 21.0555556,4.66666667 18.3888889,3.94444444 C15.6666667,3.16666667 12.8333333,2.38888889 10.0555556,3.11111111 C4.77777778,4.5 0.666666667,9.27777778 0.5,9.5 C0.333333333,9.72222222 0.277777778,10 0.333333333,10.2777778 L10.8333333,49.3888889 C10.8888889,49.7777778 11.2222222,50 11.6111111,50 C11.6666667,50 11.7222222,50 11.7777778,49.9444444 C12.2222222,49.8333333 12.5,49.3888889 12.3888889,48.9444444 L2.05555556,10.2777778 C3.05555556,9.22222222 6.44444444,5.83333333 10.5,4.72222222 C12.8333333,4.11111111 15.3333333,4.83333333 18,5.55555556 C20.7222222,6.33333333 23.5555556,7.11111111 26.3333333,6.38888889 C30.1111111,5.33333333 33.5,3.33333333 35.1111111,2.22222222 L41.3888889,25.2777778 C40.1666667,26.1111111 36.5555556,28.4444444 32.6111111,29.5 C30.2777778,30.1111111 27.7777778,29.3888889 25.1111111,28.6666667 C22.3888889,27.8888889 19.5555556,27.1111111 16.7777778,27.8333333 C14.7777778,28.3888889 12.7777778,29.3888889 10.7777778,30.9444444 C10.3888889,31.2222222 10.3333333,31.7222222 10.6111111,32.1111111 C10.8888889,32.5 11.3888889,32.5555556 11.7777778,32.2777778 C13.6111111,30.8333333 15.4444444,29.8888889 17.1666667,29.4444444 C19.5,28.8333333 22,29.5555556 24.6666667,30.2777778 C27.3888889,31.0555556 30.2222222,31.8333333 33,31.1111111 C38.1666667,29.7222222 42.6111111,26.4444444 42.7777778,26.2777778 C43,26.0555556 43.1666667,25.7222222 43.0555556,25.3888889 L43.0555556,25.3888889 Z" fill="url(#linearGradient-1)"></path>
                            <path d="M16.3888889,14.8333333 C17,17.1111111 19.1111111,17.6666667 20.9444444,17.9444444 L22.2777778,22.9444444 C21.1111111,23.0555556 20.2777778,22.6666667 19.9444444,22.3888889 C19.6111111,22.1111111 19.0555556,22.1111111 18.7777778,22.5 C18.5,22.8333333 18.5,23.3888889 18.8888889,23.6666667 C19.6111111,24.2777778 21,24.8333333 22.7222222,24.6111111 L23.2222222,26.5555556 C23.3333333,27 23.7777778,27.2777778 24.2222222,27.1666667 C24.6666667,27.0555556 24.9444444,26.6111111 24.8333333,26.1666667 L24.3333333,24.2222222 C26.3333333,23.3333333 27.3888889,21.4444444 26.8888889,19.5555556 C26.2777778,17.2777778 24.1666667,16.8333333 22.3333333,16.5 L21,11.4444444 C22.1666667,11.3333333 23,11.7222222 23.2777778,12 C23.6111111,12.2777778 24.1666667,12.2222222 24.4444444,11.8888889 C24.7222222,11.5555556 24.6666667,11 24.3333333,10.7222222 C23.6111111,10.1111111 22.2222222,9.61111111 20.5555556,9.83333333 L20,7.88888889 C19.8888889,7.44444444 19.4444444,7.16666667 19,7.27777778 C18.5555556,7.38888889 18.2777778,7.83333333 18.3888889,8.27777778 L18.8888889,10.2222222 C16.9444444,11.0555556 15.8888889,13 16.3888889,14.8333333 L16.3888889,14.8333333 Z M25.2777778,20.0555556 C25.5,20.8888889 25.0555556,21.9444444 23.9444444,22.5555556 L22.8333333,18.3333333 C24.1666667,18.6111111 25,19 25.2777778,20.0555556 L25.2777778,20.0555556 Z M19.3888889,11.8888889 L20.5555556,16.2222222 C19.2222222,15.9444444 18.3333333,15.5555556 18.0555556,14.4444444 C17.8333333,13.5555556 18.2777778,12.5 19.3888889,11.8888889 L19.3888889,11.8888889 Z" fill="#9FB1C3"></path>
                        </g>
                    </g>
                </g>
            </g>
        </g>
    </g>
</svg>