<?xml version="1.0" encoding="UTF-8" standalone="no"?>
<svg width="45px" height="50px" viewBox="0 0 45 50" version="1.1" xmlns="http://www.w3.org/2000/svg" xmlns:xlink="http://www.w3.org/1999/xlink">
    <!-- Generator: Sketch 3.7 (28169) - http://www.bohemiancoding.com/sketch -->
    <title>noun_237347_cc</title>
    <desc>Created with Sketch.</desc>
    <defs>
        <linearGradient x1="50%" y1="0%" x2="50%" y2="100%" id="linearGradient-1">
            <stop stop-color="#A5B7C7" offset="0%"></stop>
            <stop stop-color="#8395AC" offset="100%"></stop>
        </linearGradient>
    </defs>
    <g id="New-Landing" stroke="none" stroke-width="1" fill="none" fill-rule="evenodd">
        <g id="Landing-(v1)" transform="translate(-449.000000, -567.000000)" fill="url(#linearGradient-1)">
            <g id="Feature-Broad" transform="translate(0.000000, 538.000000)">
                <g id="Regulated" transform="translate(382.000000, 29.000000)">
                    <g id="noun_237347_cc" transform="translate(67.000000, 0.000000)">
                        <g id="Group">
                            <path d="M43.4825553,6.29375 L22.5980344,0.04375 C22.4017199,-0.0145833333 22.1949631,-0.0145833333 21.9986486,0.04375 L1.11412776,6.29375 C0.671375921,6.42708333 0.368550369,6.83125 0.368550369,7.29166667 L0.368550369,30.2083333 C0.368550369,39.4208333 14.4488943,47.6125 21.9882064,49.9541667 C22.0884521,49.9854167 22.1928747,50 22.2972973,50 C22.4017199,50 22.5061425,49.9854167 22.6063882,49.9541667 C30.1457002,47.6145833 44.2260442,39.4208333 44.2260442,30.2083333 L44.2260442,7.29166667 C44.2260442,6.83125 43.9232187,6.42708333 43.4825553,6.29375 L43.4825553,6.29375 Z M35.5673219,18.4458333 L20.9481572,33.0291667 C20.7434889,33.23125 20.4761671,33.3333333 20.2088452,33.3333333 C19.9415233,33.3333333 19.6742015,33.23125 19.4695332,33.0291667 L11.1157248,24.6958333 C10.7084767,24.2895833 10.7084767,23.6291667 11.1157248,23.2229167 C11.522973,22.8166667 12.1850123,22.8166667 12.5922604,23.2229167 L20.2088452,30.81875 L34.0886978,16.9729167 C34.4959459,16.5666667 35.1579853,16.5666667 35.5652334,16.9729167 C35.9724816,17.3791667 35.97457,18.0375 35.5673219,18.4458333 L35.5673219,18.4458333 Z" id="Shape"></path>
                        </g>
                    </g>
                </g>
            </g>
        </g>
    </g>
</svg>