<?xml version="1.0" encoding="UTF-8" standalone="no"?>
<svg width="55px" height="50px" viewBox="0 0 55 50" version="1.1" xmlns="http://www.w3.org/2000/svg" xmlns:xlink="http://www.w3.org/1999/xlink">
    <!-- Generator: Sketch 3.7 (28169) - http://www.bohemiancoding.com/sketch -->
    <title>noun_136161_cc</title>
    <desc>Created with Sketch.</desc>
    <defs>
        <linearGradient x1="50%" y1="0%" x2="50%" y2="100%" id="linearGradient-1">
            <stop stop-color="#A5B7C7" offset="0%"></stop>
            <stop stop-color="#8395AC" offset="100%"></stop>
        </linearGradient>
    </defs>
    <g id="New-Landing" stroke="none" stroke-width="1" fill="none" fill-rule="evenodd">
        <g id="Landing-(v1)" transform="translate(-1012.000000, -565.000000)">
            <g id="noun_136161_cc" transform="translate(1012.000000, 565.000000)">
                <g id="Group">
                    <g>
                        <path d="M26.8707317,19.1408537 L16.2054878,7.41036585 C16.6603659,6.71768293 16.9268293,5.89085366 16.9268293,5 C16.9268293,2.57012195 14.9579268,0.599390244 12.5286585,0.599390244 C10.097561,0.599390244 8.12743902,2.57012195 8.12743902,5 C8.12743902,7.42987805 10.0969512,9.39878049 12.5286585,9.39878049 C13.2695122,9.39878049 13.9658537,9.21341463 14.5786585,8.8902439 L25.2439024,20.6207317 C25.7085366,20.0493902 26.2573171,19.5506098 26.8707317,19.1408537 Z M23.6310976,24.6463415 L8.57073171,25.6865854 C7.98841463,23.9396341 6.34329268,22.677439 4.40060976,22.677439 C1.9695122,22.677439 0,24.6481707 0,27.0786585 C0,29.5073171 1.9695122,31.4768293 4.40060976,31.4768293 C6.5554878,31.4768293 8.34573171,29.9268293 8.72256098,27.8810976 L23.7804878,26.8414634 C23.6658537,26.3256098 23.6012195,25.7926829 23.6012195,25.2439024 C23.6012195,25.0420732 23.6152439,24.8439024 23.6310976,24.6463415 Z M23.3268293,39.2512195 C22.9780488,39.1756098 22.6170732,39.1347561 22.2457317,39.1347561 C19.4103659,39.1347561 17.1115854,41.4335366 17.1115854,44.2682927 C17.1115854,47.102439 19.4103659,49.4006098 22.2457317,49.4006098 C25.0792683,49.4006098 27.377439,47.102439 27.377439,44.2682927 C27.377439,42.5908537 26.5695122,41.1054878 25.3256098,40.1689024 L28.9237805,32.2914634 C28.2054878,32.0871951 27.5329268,31.7786585 26.9231707,31.3780488 L23.3268293,39.2512195 Z M44.9664634,16.5737805 C46.0189024,17.577439 47.4420732,18.1987805 49.0121951,18.1987805 C52.2518293,18.1987805 54.8780488,15.572561 54.8780488,12.3329268 C54.8780488,9.09329268 52.2518293,6.46585366 49.0121951,6.46585366 C45.7719512,6.46585366 43.145122,9.09329268 43.145122,12.3329268 C43.145122,13.2091463 43.3420732,14.0371951 43.6878049,14.7835366 L36.1902439,20.1384146 C36.702439,20.6646341 37.1323171,21.2689024 37.4682927,21.9286585 L44.9664634,16.5737805 Z M49.0121951,35.4676829 C47.8439024,35.4676829 46.770122,35.8621951 45.9073171,36.5207317 L37.1652439,29.0939024 C36.775,29.722561 36.2963415,30.2884146 35.7414634,30.7719512 L44.4792683,38.1945122 C44.0969512,38.9128049 43.8786585,39.7317073 43.8786585,40.6018293 C43.8786585,43.4359756 46.1768293,45.7341463 49.0121951,45.7341463 C51.8463415,45.7341463 54.1445122,43.4359756 54.1445122,40.6018293 C54.1445122,37.7670732 51.8463415,35.4676829 49.0121951,35.4676829 Z M34.3871951,12.2853659 C36.1902439,12.054878 37.5884146,10.5317073 37.5884146,8.66646341 C37.5884146,6.64146341 35.947561,4.99939024 33.922561,4.99939024 C31.897561,4.99939024 30.2554878,6.64146341 30.2554878,8.66646341 C30.2554878,10.0737805 31.0579268,11.2817073 32.222561,11.8957317 L31.1359756,17.9207317 C31.8920732,17.9420732 32.6189024,18.0762195 33.3012195,18.3091463 L34.3871951,12.2853659 Z" id="Combined-Shape" fill="url(#linearGradient-1)"></path>
                        <path d="M37.1652439,29.0939024 C37.8591463,27.9737805 38.2664634,26.6579268 38.2664634,25.2439024 C38.2664634,24.0493902 37.9743902,22.925 37.4676829,21.9286585 C37.1317073,21.2682927 36.7018293,20.6646341 36.1896341,20.1384146 C35.3926829,19.3176829 34.4060976,18.6878049 33.3006098,18.3097561 C32.6182927,18.0768293 31.8914634,17.9426829 31.1353659,17.9213415 C31.0676829,17.920122 31.0006098,17.9109756 30.9317073,17.9109756 C29.4292683,17.9109756 28.0335366,18.3652439 26.8707317,19.1408537 C26.2567073,19.5506098 25.7085366,20.0493902 25.2439024,20.6207317 C24.3359756,21.7371951 23.7536585,23.1262195 23.6304878,24.6463415 C23.6152439,24.8439024 23.6006098,25.0420732 23.6006098,25.2432927 C23.6006098,25.7920732 23.6652439,26.325 23.779878,26.8408537 C24.2006098,28.7329268 25.3506098,30.3481707 26.9219512,31.377439 C27.5317073,31.7780488 28.204878,32.0865854 28.922561,32.2908537 C29.5621951,32.472561 30.2335366,32.5768293 30.9310976,32.5768293 C32.7731707,32.5768293 34.4512195,31.8926829 35.7408537,30.7713415 C36.2963415,30.2884146 36.7756098,29.722561 37.1652439,29.0939024 L37.1652439,29.0939024 Z" id="Shape" fill="#93A5B9"></path>
                    </g>
                </g>
            </g>
        </g>
    </g>
</svg>